<svg xmlns="http://www.w3.org/2000/svg" width="13.333" height="12" viewBox="0 0 13.333 12"><defs><style>.a{fill:none;}.b{fill:#fff;}</style></defs><path class="a" d="M4.667,7.667v6.667H14V7.667ZM12,10.333H6.667V9H12Zm2.668-4V5H4V6.333H14.667Z" transform="translate(-2.667 -3.667)"/><path class="b" d="M14,3H3.333A1.335,1.335,0,0,0,2,4.333V5.667a1.33,1.33,0,0,0,.667,1.148v6.852A1.335,1.335,0,0,0,4,15h9.333a1.335,1.335,0,0,0,1.333-1.333V6.815a1.33,1.33,0,0,0,.667-1.148V4.333A1.335,1.335,0,0,0,14,3ZM3.333,4.333H14V5.667H3.333ZM4,13.667V7h9.333v6.667Z" transform="translate(-2 -3)"/><path class="b" d="M8,11h5.333v1.333H8Z" transform="translate(-4 -5.667)"/></svg>